<?xml version="1.0" encoding="UTF-8"?><svg id="a" xmlns="http://www.w3.org/2000/svg" viewBox="0 0 1002 394"><defs><style>.b{fill:#ffffff;}</style></defs><g><path class="b" d="M.66,3.57h63.48V75.46h69.37V3.57h63.76V209.01h-63.76V125.91H64.14v83.1H.66V3.57Z"/><path class="b" d="M369.97,175.1h-72.07l-10.01,33.91h-64.82L300.29,3.57h69.25l77.2,205.44h-66.48l-10.28-33.91Zm-13.17-44.42l-22.68-73.85-22.44,73.85h45.12Z"/><path class="b" d="M456.12,141.04l60.4-3.78c1.31,9.81,3.97,17.29,7.99,22.42,6.54,8.32,15.88,12.47,28.03,12.47,9.06,0,16.05-2.13,20.95-6.38,4.9-4.25,7.36-9.18,7.36-14.78s-2.34-10.09-7.01-14.29c-4.67-4.2-15.51-8.17-32.51-11.91-27.84-6.26-47.69-14.57-59.56-24.94-11.96-10.37-17.94-23.59-17.94-39.66,0-10.56,3.06-20.53,9.18-29.92,6.12-9.39,15.32-16.77,27.61-22.14C512.9,2.75,529.74,.07,551.14,.07c26.25,0,46.27,4.88,60.05,14.64,13.78,9.76,21.98,25.29,24.59,46.6l-59.84,3.5c-1.59-9.25-4.93-15.97-10.02-20.18-5.09-4.2-12.12-6.31-21.09-6.31-7.38,0-12.94,1.57-16.68,4.69-3.74,3.13-5.61,6.94-5.61,11.42,0,3.27,1.54,6.21,4.63,8.83,2.99,2.71,10.09,5.23,21.3,7.57,27.75,5.98,47.62,12.03,59.63,18.15,12,6.12,20.74,13.71,26.21,22.77,5.46,9.06,8.2,19.2,8.2,30.41,0,13.17-3.64,25.32-10.93,36.44-7.29,11.12-17.47,19.55-30.55,25.29-13.08,5.75-29.57,8.62-49.47,8.62-34.94,0-59.14-6.73-72.59-20.18-13.45-13.45-21.07-30.55-22.84-51.29Z"/><path class="b" d="M675.96,112.04h82.96v44.14h-82.96v-44.14Z"/><path class="b" d="M903.25,134.6v-42.74h98.1v87.59c-18.78,12.8-35.38,21.51-49.82,26.13-14.43,4.63-31.55,6.94-51.36,6.94-24.38,0-44.26-4.16-59.63-12.47-15.37-8.31-27.28-20.69-35.73-37.14-8.46-16.44-12.68-35.31-12.68-56.62,0-22.42,4.62-41.92,13.87-58.51,9.25-16.58,22.79-29.17,40.64-37.77C860.55,3.38,879.28,.07,902.83,.07s39.68,2.06,50.94,6.17c11.26,4.11,20.6,10.49,28.03,19.13,7.43,8.64,13.01,19.6,16.75,32.86l-61.24,10.93c-2.52-7.75-6.8-13.68-12.82-17.8-6.03-4.11-13.71-6.17-23.05-6.17-13.92,0-25.02,4.83-33.28,14.5-8.27,9.67-12.4,24.97-12.4,45.89,0,22.24,4.18,38.12,12.54,47.65,8.36,9.53,20.02,14.29,34.96,14.29,7.1,0,13.87-1.03,20.32-3.08,6.45-2.05,13.83-5.56,22.14-10.51v-19.34h-42.46Z"/></g><g><polygon class="b" points="24.39 261.06 13.26 261.06 13.26 248.22 .66 248.22 .66 286.17 13.26 286.17 13.26 271.33 24.39 271.33 24.39 286.17 37.04 286.17 37.04 248.22 24.39 248.22 24.39 261.06"/><path class="b" d="M53.62,248.22l-14.27,37.95h12.96l1.79-6.06h11.94l1.84,6.06h13.25l-14.26-37.95h-13.24Zm9.68,22.7h-6.36l3.16-10.41,3.2,10.41Z"/><polygon class="b" points="107.68 267.11 94.82 248.22 83.27 248.22 83.27 286.17 95.19 286.17 95.19 267.43 107.97 286.17 119.62 286.17 119.62 248.22 107.68 248.22 107.68 267.11"/><polygon class="b" points="138.5 270.63 156.15 270.63 156.15 261.89 138.5 261.89 138.5 257.31 157.53 257.31 157.53 248.22 125.88 248.22 125.88 286.17 158.08 286.17 158.08 276.6 138.5 276.6 138.5 270.63"/><path class="b" d="M194.17,253.69c-1.39-1.76-3.18-3.13-5.31-4.06-2.12-.93-4.91-1.4-8.3-1.4h-17.48v37.95h17.48c2.07,0,4.4-.34,6.92-1.02,1.91-.51,3.72-1.54,5.37-3.06,1.65-1.52,2.95-3.42,3.87-5.65,.92-2.23,1.39-5.38,1.39-9.36,0-2.55-.31-4.99-.92-7.27-.62-2.31-1.64-4.36-3.02-6.11Zm-9.51,19.73c-.51,1.17-1.2,1.99-2.07,2.45-.91,.48-2.51,.72-4.76,.72h-2.15v-18.79h2.2c2.73,0,4.7,.65,5.84,1.94,1.16,1.31,1.75,3.86,1.75,7.57,0,2.84-.27,4.9-.8,6.12Z"/><path class="b" d="M213.11,248.22l-14.27,37.95h12.96l1.79-6.06h11.94l1.84,6.06h13.25l-14.26-37.95h-13.24Zm9.68,22.7h-6.36l3.16-10.41,3.2,10.41Z"/><path class="b" d="M270.09,248.22l-14.27,37.95h12.96l1.79-6.06h11.94l1.84,6.06h13.25l-14.26-37.95h-13.24Zm9.68,22.7h-6.36l3.16-10.41,3.2,10.41Z"/><rect class="b" x="300.11" y="248.22" width="12.62" height="37.95"/><path class="b" d="M349.9,272.24c-.83-1.04-1.47-1.71-1.93-2.04-.35-.25-.78-.5-1.32-.74,.9-.3,1.67-.64,2.3-1.01,1.6-.97,2.88-2.25,3.8-3.81,.92-1.57,1.39-3.45,1.39-5.59,0-2.46-.61-4.58-1.82-6.3-1.21-1.73-2.83-2.94-4.8-3.58-1.91-.62-4.68-.93-8.23-.93h-19.53v37.95h12.65v-14.89h.37c.91,0,1.7,.24,2.41,.73,.36,.26,.97,.92,1.87,2.62l6.24,11.54h14.22l-5.96-11.54c-.29-.58-.83-1.36-1.66-2.39Zm-17.49-15.35h4.35c2.38,0,3.39,.44,3.82,.8,.61,.51,.9,1.25,.9,2.25,0,.66-.19,1.23-.58,1.74-.38,.5-.86,.8-1.48,.92-1.79,.4-2.54,.49-2.87,.49h-4.15v-6.2Z"/><path class="b" d="M378.92,248.22h-19.48v37.95h12.65v-13.61h5.58c4.72,0,8.29-1.11,10.63-3.3,2.35-2.2,3.54-5.28,3.54-9.14s-1.1-6.72-3.26-8.79c-2.16-2.06-5.41-3.1-9.66-3.1Zm.62,12.22c0,1-.36,1.8-1.11,2.44-.76,.65-2.18,.99-4.2,.99h-2.15v-6.93h2.6c1.93,0,3.24,.34,3.88,1.01,.66,.69,.98,1.5,.98,2.49Z"/><path class="b" d="M414.67,247.6c-6.1,0-10.94,1.75-14.39,5.19-3.44,3.44-5.19,8.3-5.19,14.44,0,4.38,.88,8.1,2.62,11.03,1.74,2.95,4.05,5.14,6.86,6.5,2.79,1.35,6.33,2.04,10.55,2.04s7.7-.8,10.51-2.37c2.82-1.58,5.01-3.82,6.51-6.66,1.49-2.83,2.24-6.47,2.24-10.84,0-6.05-1.73-10.84-5.14-14.23-3.41-3.38-8.31-5.1-14.56-5.1Zm-5.07,27.25c-1.27-1.49-1.92-4.04-1.92-7.58s.65-6.13,1.93-7.63c1.27-1.49,2.92-2.21,5.03-2.21,2.22,0,3.92,.71,5.2,2.18,1.28,1.47,1.93,3.88,1.93,7.16,0,3.93-.62,6.67-1.86,8.13-1.22,1.45-2.91,2.15-5.18,2.15s-3.88-.72-5.14-2.21Z"/><path class="b" d="M469.51,272.24c-.83-1.04-1.47-1.71-1.93-2.04-.35-.25-.78-.5-1.32-.74,.9-.3,1.67-.64,2.3-1.01,1.6-.97,2.88-2.25,3.8-3.81,.92-1.57,1.39-3.45,1.39-5.59,0-2.45-.61-4.58-1.82-6.3-1.21-1.73-2.83-2.94-4.8-3.58-1.91-.62-4.68-.93-8.23-.93h-19.53v37.95h12.65v-14.89h.37c.91,0,1.7,.24,2.41,.73,.36,.26,.97,.92,1.87,2.62l6.24,11.54h14.22l-5.96-11.54c-.29-.58-.83-1.36-1.66-2.39Zm-8.41-12.3c0,.66-.19,1.23-.58,1.74-.38,.5-.86,.8-1.48,.92-1.79,.4-2.54,.49-2.87,.49h-4.15v-6.2h4.35c2.38,0,3.39,.44,3.82,.8,.61,.51,.9,1.25,.9,2.25Z"/><polygon class="b" points="476.53 258.54 488.09 258.54 488.09 286.17 500.69 286.17 500.69 258.54 512.26 258.54 512.26 248.22 476.53 248.22 476.53 258.54"/><path class="b" d="M559.31,263.54c-2.21-1.13-5.75-2.21-10.81-3.3-2.47-.51-3.26-.97-3.53-1.21-.41-.35-.6-.7-.6-1.1,0-.61,.25-1.12,.78-1.56,.55-.46,1.41-.69,2.57-.69,1.45,0,2.58,.33,3.37,.98,.79,.65,1.31,1.73,1.57,3.23l.1,.55,11.92-.7-.08-.67c-.49-3.97-2.05-6.92-4.65-8.76-2.56-1.81-6.29-2.73-11.09-2.73-3.89,0-7.01,.5-9.28,1.49-2.3,1-4.05,2.41-5.21,4.19-1.16,1.77-1.74,3.69-1.74,5.69,0,3.05,1.15,5.59,3.42,7.56,2.19,1.91,5.86,3.46,10.92,4.6,3.63,.8,5.01,1.52,5.52,1.98,.7,.63,1.04,1.31,1.04,2.08,0,.82-.36,1.53-1.1,2.17-.75,.65-1.88,.98-3.33,.98-1.99,0-3.46-.65-4.51-1.99-.64-.82-1.08-2.07-1.3-3.7l-.08-.58-12.02,.75,.05,.64c.33,3.84,1.76,7.05,4.26,9.55,2.51,2.51,7.03,3.79,13.41,3.79,3.62,0,6.68-.54,9.09-1.59,2.44-1.07,4.37-2.67,5.73-4.75,1.36-2.08,2.05-4.38,2.05-6.85,0-2.11-.52-4.05-1.55-5.76-1.03-1.71-2.69-3.16-4.93-4.3Z"/><polygon class="b" points="582.85 270.63 600.5 270.63 600.5 261.89 582.85 261.89 582.85 257.31 601.88 257.31 601.88 248.22 570.23 248.22 570.23 286.17 602.43 286.17 602.43 276.6 582.85 276.6 582.85 270.63"/><path class="b" d="M637.57,272.24c-.83-1.04-1.47-1.71-1.93-2.04-.34-.25-.78-.5-1.31-.74,.9-.3,1.67-.64,2.3-1.02,1.6-.97,2.88-2.25,3.8-3.81,.92-1.57,1.39-3.45,1.39-5.59,0-2.46-.61-4.58-1.82-6.3-1.21-1.73-2.83-2.94-4.8-3.58-1.91-.62-4.68-.93-8.23-.93h-19.53v37.95h12.65v-14.89h.37c.91,0,1.7,.24,2.41,.73,.36,.26,.97,.92,1.87,2.62l6.24,11.54h14.22l-5.96-11.54c-.29-.58-.83-1.36-1.66-2.39Zm-8.41-12.3c0,.66-.19,1.23-.58,1.74-.38,.5-.86,.8-1.48,.92-1.79,.4-2.54,.49-2.87,.49h-4.15v-6.2h4.35c2.38,0,3.39,.44,3.83,.8,.61,.51,.9,1.25,.9,2.25Z"/><polygon class="b" points="664.29 273.14 656.5 248.22 643.27 248.22 657.45 285.76 657.61 286.17 670.77 286.17 684.87 248.22 671.99 248.22 664.29 273.14"/><rect class="b" x="687.49" y="248.22" width="12.62" height="37.95"/><path class="b" d="M731.43,270.39c-.47,2.2-1.24,3.89-2.27,5.02-.98,1.08-2.48,1.62-4.45,1.62s-3.6-.66-4.72-2.03c-1.13-1.38-1.71-4.06-1.71-7.96,0-3.14,.49-5.45,1.45-6.88,1.25-1.9,3.02-2.82,5.38-2.82,1.03,0,1.97,.21,2.79,.63,.83,.42,1.53,1.03,2.11,1.82,.34,.46,.68,1.22,1.01,2.27l.17,.55,11.26-2.5-.22-.66c-1.32-3.98-3.39-6.99-6.13-8.93-2.74-1.94-6.53-2.92-11.27-2.92-6.05,0-10.82,1.71-14.15,5.08-3.33,3.37-5.03,8.22-5.03,14.44,0,4.65,.96,8.54,2.85,11.54,1.89,3.01,4.18,5.15,6.82,6.35,2.6,1.19,5.98,1.8,10.04,1.8,3.36,0,6.18-.5,8.38-1.48,2.21-.99,4.09-2.48,5.59-4.42,1.48-1.93,2.58-4.36,3.27-7.22l.14-.58-11.16-3.37-.14,.67Z"/><polygon class="b" points="759.46 270.63 777.11 270.63 777.11 261.89 759.46 261.89 759.46 257.31 778.49 257.31 778.49 248.22 746.84 248.22 746.84 286.17 779.04 286.17 779.04 276.6 759.46 276.6 759.46 270.63"/><path class="b" d="M819.44,272.88h7.59v2.46c-1.32,.76-2.5,1.31-3.52,1.64-1.08,.35-2.24,.52-3.44,.52-2.5,0-4.39-.77-5.77-2.34-1.38-1.58-2.08-4.3-2.08-8.09,0-3.57,.7-6.19,2.07-7.79,1.36-1.59,3.15-2.37,5.47-2.37,1.53,0,2.8,.33,3.76,.99,.95,.65,1.64,1.61,2.05,2.85l.17,.52,12.16-2.17-.19-.67c-.69-2.45-1.74-4.5-3.12-6.11-1.39-1.62-3.16-2.83-5.27-3.6-2.07-.76-5.21-1.14-9.32-1.14s-7.75,.62-10.31,1.84c-3.29,1.58-5.83,3.94-7.54,7.01-1.7,3.04-2.56,6.66-2.56,10.76s.79,7.39,2.33,10.4c1.56,3.04,3.8,5.36,6.64,6.9,2.83,1.53,6.51,2.3,10.95,2.3,3.59,0,6.74-.43,9.37-1.27,2.62-.84,5.67-2.44,9.06-4.75l.27-.19v-16.6h-18.78v8.89Z"/><path class="b" d="M873.99,272.24c-.83-1.04-1.47-1.71-1.93-2.04-.35-.25-.78-.5-1.32-.74,.9-.3,1.67-.64,2.3-1.02,1.6-.97,2.88-2.25,3.8-3.81,.92-1.57,1.39-3.45,1.39-5.59,0-2.45-.61-4.58-1.82-6.3-1.21-1.73-2.83-2.94-4.8-3.58-1.91-.62-4.68-.93-8.23-.93h-19.53v37.95h12.65v-14.89h.37c.91,0,1.7,.24,2.41,.73,.36,.26,.97,.92,1.87,2.62l6.24,11.54h14.22l-5.96-11.54c-.29-.58-.83-1.36-1.66-2.39Zm-8.41-12.3c0,.66-.19,1.23-.58,1.74-.38,.5-.86,.8-1.48,.92-1.79,.4-2.54,.49-2.87,.49h-4.15v-6.2h4.35c2.38,0,3.39,.44,3.82,.8,.61,.51,.9,1.25,.9,2.25Z"/><path class="b" d="M901.73,247.6c-6.1,0-10.94,1.75-14.39,5.19-3.45,3.44-5.19,8.3-5.19,14.44,0,4.38,.88,8.1,2.62,11.03,1.74,2.95,4.05,5.14,6.86,6.5,2.79,1.35,6.33,2.04,10.55,2.04s7.7-.8,10.51-2.37c2.82-1.58,5.01-3.82,6.51-6.66,1.48-2.82,2.24-6.47,2.24-10.84,0-6.05-1.73-10.84-5.14-14.23-3.41-3.38-8.31-5.1-14.56-5.1Zm-5.05,12.05c1.27-1.49,2.92-2.21,5.03-2.21s3.92,.71,5.2,2.18c1.28,1.47,1.93,3.88,1.93,7.16,0,3.93-.62,6.67-1.85,8.13-1.22,1.45-2.92,2.15-5.18,2.15s-3.88-.72-5.14-2.21c-1.27-1.49-1.92-4.04-1.92-7.58s.65-6.13,1.93-7.63Z"/><path class="b" d="M950.17,271.23c0,1.85-.5,3.29-1.48,4.27-1,1-2.35,1.48-4.15,1.48s-3.17-.49-4.17-1.5c-.99-1-1.48-2.43-1.48-4.25v-23.01h-12.57v22.49c0,1.85,.36,4,1.08,6.38,.46,1.53,1.31,3.03,2.54,4.46,1.22,1.42,2.6,2.54,4.08,3.31,1.48,.77,3.33,1.3,5.51,1.56,2.12,.25,4.12,.38,5.92,.38,3.15,0,5.89-.43,8.15-1.27,1.66-.61,3.27-1.68,4.77-3.18,1.5-1.5,2.62-3.28,3.33-5.29,.7-1.98,1.05-4.12,1.05-6.35v-22.49h-12.57v23.01Z"/><path class="b" d="M998.08,251.32c-2.16-2.06-5.41-3.1-9.66-3.1h-19.48v37.95h12.65v-13.61h5.58c4.72,0,8.29-1.11,10.63-3.3,2.35-2.2,3.54-5.28,3.54-9.14s-1.1-6.72-3.26-8.79Zm-16.49,5.61h2.6c1.93,0,3.24,.34,3.88,1.01,.66,.69,.98,1.5,.98,2.49s-.36,1.8-1.11,2.44c-.76,.65-2.18,.99-4.2,.99h-2.15v-6.93Z"/></g><g><path fill="#ffffff" d="M2,322.91H28.89v30.33l-4.45-6.11-.77,.43c-10.74,5.97-18.26,10.58-22.35,13.7l-.66,.5,6.99,13.97,.95-.68c7.66-5.47,14.47-9.66,20.29-12.49v13.11c0,2.04-.38,2.48-.42,2.52-.02,.02-.5,.43-3.24,.43h-8.93l4.99,14.55h9.68c8.39,0,12.83-4.06,12.83-11.75v-17.65l5,11.99,1.01-.67c4.03-2.68,10.49-6.49,19.24-11.33v11.5c-.3,2.36-.7,2.86-.78,2.94-.02,.02-.45,.42-2.88,.42h-9.65l4.99,14.55h10.75c7.92,0,12.11-4.31,12.11-12.47v-70.89H2v13.11Zm41.8,9.26c4.09,3.49,8.15,9.47,12.08,17.76l.52,1.1,11.36-8.41-.41-.76c-3.13-5.78-7.4-11.63-12.69-17.4l-.56-.62-10.29,6.47v-7.41h25.24v30.07l-2.47-5.17-.9,.43c-5.42,2.59-12.77,6.62-21.87,11.97v-28.05Z"/><path fill="#ffffff" d="M12.79,351.08l12.59-7.98-.3-.77c-2.9-7.5-6.36-13.28-10.26-17.19l-.52-.52-12.26,6.34,.97,.97c4.16,4.16,7.33,10.16,9.42,17.84l.36,1.31Z"/><path fill="#ffffff" d="M93.96,393.16h14.91v-6.09h43.53v5.74h14.91v-81.21H93.96v81.57Zm44.31-51.46v-16.28h14.13v16.28h-14.13Zm14.13,13.47v18.43h-14.13v-18.43h14.13Zm-29.4,0v18.43h-14.13v-18.43h14.13Zm0-29.75v16.28h-14.13v-16.28h14.13Z"/><path fill="#ffffff" d="M225.54,368.43h26.53v-13.83h-55.25c9.96-5.54,16.11-13.32,18.3-23.15l.19-.86-5.43-1.94h7.56v14.77c0,2.42,.94,4.59,2.8,6.44,1.85,1.86,4.26,2.8,7.16,2.8h16.49c2.89,0,5.18-.82,6.8-2.44,1.55-1.55,3.15-4.6,4.89-9.32l.32-.88-3.77-1.7h6.38v-23.51h-33.34v-7.17h-14.91v7.17h-32.98v23.51h14.55v-9.68h9.2c-2.23,8.15-9.57,13.39-21.85,15.58l-1.41,.25,5.94,10.13h-.33v13.83h26.89v8.39h-34.06v13.83h83.38v-13.83h-34.06v-8.39Zm18.43-39.79v5.98l-2.61-1.3-.24,1.3c-.8,4.25-1.55,5.12-1.73,5.28h-5.17c-.51,0-1.17-.07-1.45-.41-.22-.28-.25-.84-.09-1.59l.02-9.25h11.26Z"/><path fill="#ffffff" d="M308.43,375.96h24.74v-12.04c2.36,1.9,5.83,4.09,10.35,6.54l.9,.49,7.03-13.65-.92-.45c-6.61-3.2-11.27-6.41-13.89-9.57h13.38v-13.47h-15.77v-3.02h12.55v-13.11h-12.55v-9.68h-14.19v9.68h-7.32v-9.68h-14.55v9.68h-9.7c-4.57-4.48-9.56-7.48-14.85-8.92l-.71-.19-7.91,12.49,1.26,.38c2.28,.68,5.2,2.21,8.67,4.52,3.23,2.31,5.32,4.15,6.2,5.48l.81,1.22,4.04-5.77v3.92h12.19v3.02h-14.7v5.68c-3.68-2.88-7.5-4.66-11.38-5.31l-.69-.11-7.09,12.5,1.27,.32c1.8,.45,4.6,1.86,8.31,4.17,2.52,1.61,4.25,2.98,5.14,4.08l.86,1.08,5.83-8.95h8.16c-2.63,4.37-6.9,7.94-12.71,10.64l-1.06,.49,2.8,4.2-8.15-4.21-.25,1.32c-1.64,8.64-5.19,16.45-10.56,23.22l-.61,.77,12.28,10.23,.64-.78c4.13-5.05,7.97-13.09,11.43-23.92l1.48,1.97,.75-.37c1.29-.64,2.48-1.4,3.57-2.26v13.55c0,6.75,3.69,10.32,10.68,10.32h31.91c4.95,0,8.39-2.13,10.23-6.32,1.26-2.77,1.99-6.88,2.24-12.56l.04-.81-14.58-3.75v2.72c0,5.6-.96,7.6-1.87,7.6h-21.32c-1.64,.29-2.16-.03-2.31-.19-.31-.32-.21-1.06-.13-1.48l.02-1.71Zm4.3-42.15v-3.02h7.32v3.02h-7.32Zm6.71,13.47l1.53,2.3h-11.32l1.53-2.3h8.25Zm-.47,14.7v1.94h-20.45l2.12-1.94h18.33Z"/><path fill="#ffffff" d="M418.31,311.95h-15.27v17.2h-15.56v-16.49h-15.27v16.49h-15.42v14.19h15.42v19.71h15.27v-19.71h15.56c-.13,8.6-2,15.54-5.57,20.67-3.46,5.31-9.6,10.14-18.24,14.34l-1.24,.6,11.14,11.55,.65-.32c9.94-4.85,17.31-11.25,21.94-19.03,4.25-7.31,6.46-16.66,6.58-27.82h15.06v-14.19h-15.06v-17.2Z"/><rect fill="#ffffff" x="442.71" y="343.85" width="71.55" height="14.19"/><polygon fill="#ffffff" points="586.46 315.75 595.39 325.1 601.86 319.1 593.37 309.76 586.46 315.75"/><path fill="#ffffff" d="M585.82,315.87l-6.87,5.96,4.53,4.94-1.88-1.81-.66,.4c-10.54,6.41-22.68,11.33-36.12,14.64v-27.69h-14.91v59.78c0,5.09,1.02,8.7,3.16,11.1,2.33,2.33,6.07,3.52,11.1,3.52h46.4l2.07-14.92-1.17,.02c-16.32,.24-30.31,.36-41.57,.36-3.52,0-5.09-1.35-5.09-4.38v-12.47c17.87-4.31,33.63-10.68,46.85-18.94l1.09-.68-4.22-4.06,6.54-6.1-9.25-9.66Z"/><path fill="#ffffff" d="M656.59,349.29c3.13-5.24,7.82-14.78,13.95-28.4l.31-.68-9.36-8.13-2.18,1.31h-48.05v14.55h38.67c-3.54,9.75-9.08,18.21-16.49,25.16-7.29,7.05-17.32,13.25-29.8,18.43l-1.11,.46,9.72,14.98,.78-.33c13.62-5.87,25.11-14.04,34.16-24.29,7.99,6.05,15.63,13.76,22.73,22.91l.71,.91,12.23-12.64-.68-.7c-7.92-8.14-16.52-16.06-25.58-23.54Z"/><polygon fill="#ffffff" points="747.62 317.44 738.02 306.6 730.3 312.04 739.47 322.88 747.62 317.44"/><polygon fill="#ffffff" points="760.16 316.68 750.54 306.23 743.25 311.69 752.02 322.56 760.16 316.68"/><path fill="#ffffff" d="M741.67,323.42h-19.49l3.04-7.08-14.78-5.75-.37,.91c-6.13,14.83-15.2,27.24-26.96,36.88l-.94,.77,12.35,10.29,.64-.58c7.53-6.83,13.88-14.09,18.87-21.6h20.61c-6.53,17.21-20.07,31.16-40.25,41.48l-1.18,.6,11.47,12.28,.68-.36c23.79-12.73,40.35-33.42,49.24-61.51l.23-.74-11.84-7.34-1.32,1.77Z"/><path fill="#ffffff" d="M774.16,342.34c0,12.73-5.77,23.19-17.14,31.08l-.9,.62,10.6,12.64,.75-.5c7.3-4.86,12.97-11.88,16.86-20.88,3.38-8.21,5.1-17.26,5.1-26.9v-22.15h-15.27v26.09Z"/><path fill="#ffffff" d="M828.48,340.69c-6.62,9.4-12.63,16.76-17.9,21.91v-49.21h-15.62v62.32l-1.4,1.86,10.92,10.92,.7-.56c12.91-10.27,24.18-21.79,33.52-34.23l.44-.59-9.86-13.56-.81,1.14Z"/><rect fill="#ffffff" x="847.44" y="343.85" width="71.55" height="14.19"/><path fill="#ffffff" d="M1001.28,314.27c-.26-2.37-1.21-4.38-2.8-5.97-1.87-1.86-4.15-2.8-6.8-2.8-3.7,0-6.4,1.37-8,4.03-1.38,2.06-1.87,4.44-1.46,7.08h-59.29v14.19h52.4c-5.43,19.55-19.96,34.82-43.21,45.4l-1.16,.53,10.25,13.11,.73-.36c13.69-6.72,24.54-15.01,32.24-24.63,8.09-9.75,14.72-23.18,19.74-39.92,2.6-.6,4.54-1.91,5.76-3.86,1.33-1.86,1.88-4.14,1.61-6.79Zm-7.01,1.19c0,.69-.26,1.27-.78,1.8h0c-1.05,1.05-2.55,1.05-3.6,0-.53-.53-.78-1.12-.78-1.8s.26-1.28,.78-1.8c.53-.53,1.12-.78,1.8-.78s1.28,.26,1.8,.78,.78,1.12,.78,1.8Z"/></g></svg>
